<?xml version="1.0" encoding="UTF-8"?>
<svg id="Layer_1" data-name="Layer 1" xmlns="http://www.w3.org/2000/svg" viewBox="0 0 88 88">
  <defs>
    <style>
      .cls-1 {
        stroke-width: 2px;
      }

      .cls-1, .cls-2 {
        stroke: #6f4f47;
      }

      .cls-1, .cls-2, .cls-3 {
        fill: none;
        stroke-miterlimit: 10;
      }

      .cls-2, .cls-3 {
        stroke-width: 3px;
      }

      .cls-3 {
        stroke: #e0b67f;
      }
    </style>
  </defs>
  <path class="cls-2" d="M46.53,70.49c-.24.18-1.94,1.43-4.19.92-2.42-.55-3.41-2.66-3.51-2.89-.29.33-2.94,3.21-7.01,2.86-3.11-.27-5.85-2.32-7.08-5.29-.66.01-4.64.01-7.55-3.12-2.5-2.7-3.26-6.68-1.99-10.32-.54-.4-4.48-3.43-4.77-8.85-.31-5.71,3.7-9.23,4.16-9.63-1.33-3.57-.75-7.49,1.56-10.23,2.34-2.78,5.56-3.28,6.42-3.38.16-.48,2.13-5.9,7.81-7.46,4.57-1.25,8.27.9,8.93,1.3.22-.16,5.53-3.97,11.54-1.39,5.67,2.44,6.78,8.34,6.85,8.76.77.37,3.56,1.85,4.94,5.18,1.87,4.5-.38,8.57-.67,9.07"/>
  <path class="cls-2" d="M39.31,14.39v13.96c-.11.45-.34,1.14-.85,1.87-.54.78-1.17,1.25-1.56,1.51.35.22.8.56,1.21,1.05.83.97,1.1,2.02,1.2,2.56v13.01c-.09.42-.33,1.2-.96,1.96-.52.64-1.1,1-1.46,1.19.38.22,1.02.65,1.57,1.43.56.78.76,1.53.85,1.96v14.44"/>
  <path class="cls-1" d="M28.22,34.4c0-.19.06-1.9-1.28-2.98-1.14-.93-2.82-1.02-4.19-.21"/>
  <path class="cls-1" d="M26.95,31.42s1.35-2.17,3.48-2.42"/>
  <path class="cls-1" d="M23.75,45.9c0-.19.06-1.9-1.28-2.98-1.14-.93-2.82-1.02-4.19-.21"/>
  <path class="cls-1" d="M22.47,42.92s1.35-2.17,3.48-2.42"/>
  <path class="cls-1" d="M23.01,51.11c.3,0,1.77.07,2.94,1.27,1.3,1.32,1.22,2.99,1.21,3.25"/>
  <polyline class="cls-3" points="57.66 58.46 62.1 63.05 70.56 54.23"/>
  <path class="cls-3" d="M64.11,41.82c1.39,1.21,3.53,2.82,6.45,4.08,2.76,1.2,5.25,1.67,7.03,1.88v12.69c-.11,1.45-.62,5.88-4.14,9.92-3.55,4.09-7.94,5.2-9.35,5.5-1.5-.31-6.3-1.49-10.06-5.96-3.19-3.79-3.87-7.84-4.05-9.46v-12.69c1.88-.21,4.43-.7,7.28-1.87,3.05-1.26,5.32-2.85,6.84-4.09Z"/>
</svg>