<?xml version="1.0" encoding="UTF-8"?>
<svg id="Layer_1" data-name="Layer 1" xmlns="http://www.w3.org/2000/svg" viewBox="0 0 88 88">
  <defs>
    <style>
      .cls-1 {
        stroke-width: 2px;
      }

      .cls-1, .cls-2 {
        stroke: #6f4f47;
      }

      .cls-1, .cls-2, .cls-3, .cls-4, .cls-5 {
        fill: none;
        stroke-miterlimit: 10;
      }

      .cls-2, .cls-3, .cls-4, .cls-5 {
        stroke-width: 3px;
      }

      .cls-3, .cls-4, .cls-5 {
        stroke: #e0b67f;
      }

      .cls-4 {
        stroke-dasharray: .98 0 .98 0 .98 .98;
      }

      .cls-5 {
        stroke-dasharray: .98 0 .98 .98;
      }
    </style>
  </defs>
  <g>
    <path class="cls-2" d="M39.61,73.52c-.88.45-2.25.97-3.93.88-4.88-.25-7.42-5.38-7.54-5.63-.71.01-4.94.01-8.04-3.33-2.66-2.87-3.47-7.11-2.12-10.99-.58-.43-4.77-3.65-5.08-9.42-.33-6.08,3.94-9.83,4.43-10.25-1.41-3.8-.8-7.98,1.66-10.9,2.49-2.96,5.92-3.49,6.83-3.6.16-.47,2.41-6.65,8.31-7.94,2.55-.56,4.72.03,5.88.45"/>
    <path class="cls-1" d="M63.91,47.09c-.02-.19-.22-1.93-1.74-2.83-1.3-.77-3.01-.61-4.27.41"/>
    <path class="cls-1" d="M62.14,44.15s.3-2.22,1.93-3.2"/>
    <g>
      <path class="cls-1" d="M32.52,31.52c-.05-.16-.5-1.58-1.91-2.09-1.21-.44-2.62-.03-3.52,1.03"/>
      <path class="cls-1" d="M30.61,29.43s.49-2.18,2.18-3"/>
      <path class="cls-1" d="M29.63,40.92c-.19-.07-1.9-.68-3.44.32-1.31.86-1.96,2.53-1.58,4.18"/>
      <path class="cls-1" d="M27.24,53.18c.32-.04,1.87-.22,3.3.84,1.59,1.17,1.79,2.94,1.81,3.22"/>
    </g>
    <path class="cls-1" d="M59.78,56.34c.04.19.22,1.09-.21,1.86-.47.85-1.3.86-1.43.86"/>
    <path class="cls-2" d="M48.39,73.52c.88.45,2.25.97,3.93.88,4.88-.25,7.42-5.38,7.54-5.63.71.01,4.94.01,8.04-3.33,2.66-2.87,3.47-7.11,2.12-10.99.58-.43,4.77-3.65,5.08-9.42.33-6.08-3.94-9.83-4.43-10.25,1.41-3.8.8-7.98-1.66-10.9-2.49-2.96-5.92-3.49-6.83-3.6-.16-.47-2.41-6.65-8.31-7.94-2.55-.56-4.72.03-5.88.45"/>
    <path class="cls-2" d="M61.86,20.1c-.07.77-.3,2.04-1.11,3.36-1.48,2.43-3.85,3.26-4.55,3.48"/>
  </g>
  <g>
    <line class="cls-3" x1="44.01" y1="74.91" x2="44.01" y2="74.41"/>
    <line class="cls-5" x1="44.01" y1="74.41" x2="44.01" y2="72.96"/>
    <line class="cls-4" x1="44.01" y1="71.47" x2="44" y2="13.07"/>
    <line class="cls-3" x1="44" y1="12.57" x2="44" y2="12.07"/>
  </g>
</svg>