<?xml version="1.0" encoding="UTF-8"?>
<svg id="Layer_1" data-name="Layer 1" xmlns="http://www.w3.org/2000/svg" viewBox="0 0 88 88">
  <defs>
    <style>
      .cls-1 {
        stroke: #e0b67f;
      }

      .cls-1, .cls-2 {
        stroke-width: 3px;
      }

      .cls-1, .cls-2, .cls-3 {
        fill: none;
        stroke-miterlimit: 10;
      }

      .cls-2, .cls-3 {
        stroke: #6f4f47;
      }

      .cls-3 {
        stroke-width: 2px;
      }
    </style>
  </defs>
  <path class="cls-2" d="M66.21,37.81c.31-.53,2.74-4.92.72-9.77-1.5-3.59-4.5-5.18-5.33-5.58-.08-.45-1.27-6.81-7.38-9.44-6.47-2.78-12.19,1.32-12.43,1.49-.71-.43-4.7-2.75-9.62-1.4-6.12,1.67-8.23,7.52-8.41,8.03-.92.11-4.39.65-6.91,3.64-2.49,2.96-3.11,7.18-1.68,11.02-.5.43-4.81,4.22-4.48,10.37.31,5.83,4.55,9.09,5.14,9.53-1.36,3.92-.55,8.21,2.15,11.12,3.13,3.38,7.41,3.38,8.13,3.36,1.33,3.2,4.28,5.41,7.63,5.7,4.38.37,7.24-2.73,7.55-3.08l.51-.67v-14.01c-.09-.46-.31-1.27-.91-2.11-.59-.83-1.29-1.3-1.69-1.54.39-.2,1.01-.59,1.57-1.28.68-.82.93-1.66,1.03-2.12v-14.01c-.11-.59-.4-1.71-1.29-2.76-.45-.53-.93-.89-1.31-1.13.43-.28,1.1-.79,1.68-1.63.55-.78.8-1.53.92-2.02v-15.04"/>
  <path class="cls-3" d="M26.63,46.54c0-.21-.1-2.04-1.64-3.09-1.31-.89-3.12-.84-4.52.15"/>
  <path class="cls-3" d="M24.99,43.45s1.26-2.45,3.52-2.9"/>
  <path class="cls-3" d="M25.19,51.55c.33.03,1.89.22,3.06,1.59,1.29,1.52,1.08,3.31,1.04,3.59"/>
  <path class="cls-1" d="M52.03,67.88c-.69-.75-3.96-4.48-3.69-9.99.36-7.28,6.59-11.06,7.07-11.34,2.84-1.47,6.94-3.19,12.1-4.1,3.77-.67,7.1-.72,9.74-.57.17,3,.11,6.86-.65,11.26-.72,4.15-1.87,7.61-2.97,10.29-.42.78-3.14,5.74-9.21,7.23-6.7,1.65-11.81-2.3-12.4-2.78Z"/>
  <path class="cls-1" d="M46.7,75.13c2.7-3.9,5.95-8.14,9.84-12.51,3.99-4.48,7.93-8.28,11.57-11.46"/>
</svg>