<?xml version="1.0" encoding="UTF-8"?>
<svg id="Layer_1" data-name="Layer 1" xmlns="http://www.w3.org/2000/svg" viewBox="0 0 88 88">
  <defs>
    <style>
      .cls-1 {
        stroke-width: 2px;
      }

      .cls-1, .cls-2 {
        stroke: #6f4f47;
      }

      .cls-1, .cls-2, .cls-3 {
        fill: none;
        stroke-miterlimit: 10;
      }

      .cls-2, .cls-3 {
        stroke-width: 3px;
      }

      .cls-3 {
        stroke: #e0b67f;
      }
    </style>
  </defs>
  <g>
    <path class="cls-2" d="M67.87,36.01c.3-.52,2.67-4.8.7-9.52-1.46-3.5-4.38-5.05-5.19-5.44-.07-.44-1.24-6.63-7.19-9.19-6.31-2.71-11.88,1.29-12.11,1.46-.69-.42-4.58-2.68-9.38-1.37-5.96,1.63-8.02,7.33-8.19,7.83-.9.11-4.28.63-6.74,3.55-2.43,2.88-3.03,6.99-1.64,10.74-.49.42-4.69,4.12-4.37,10.1.3,5.68,4.44,8.86,5.01,9.28-1.33,3.82-.53,8,2.09,10.83,3.05,3.29,7.22,3.29,7.92,3.28,1.3,3.12,4.17,5.27,7.43,5.55,4.27.37,7.05-2.66,7.36-3l.5-.65v-13.65c-.09-.45-.3-1.24-.89-2.05-.58-.81-1.25-1.27-1.65-1.5.38-.2.98-.58,1.53-1.25.66-.8.91-1.62,1-2.06v-13.65c-.1-.57-.39-1.67-1.26-2.69-.44-.51-.9-.87-1.28-1.1.42-.27,1.07-.77,1.64-1.58.53-.76.78-1.49.89-1.96v-14.65"/>
    <path class="cls-1" d="M32.46,34.32c0-.2.06-1.99-1.34-3.13-1.2-.97-2.96-1.07-4.4-.22"/>
    <path class="cls-1" d="M31.11,31.19s1.42-2.27,3.65-2.53"/>
    <path class="cls-1" d="M27.76,46.39c0-.2.06-1.99-1.34-3.13-1.2-.97-2.96-1.07-4.4-.22"/>
    <path class="cls-1" d="M26.42,43.26s1.42-2.27,3.65-2.53"/>
    <path class="cls-1" d="M26.99,51.86c.32,0,1.85.08,3.08,1.33,1.36,1.39,1.28,3.14,1.26,3.41"/>
  </g>
  <path class="cls-3" d="M57.16,51.62c.36.65,1.65,3.17.96,6.36-.84,3.88-3.95,5.73-4.46,6.01"/>
  <path class="cls-3" d="M64.2,47.51c.72,1.38,2.83,5.86,1.71,11.55-1.46,7.43-7.29,11.11-8.28,11.71"/>
  <path class="cls-3" d="M70.92,43.8c.77,1.3,5.16,9,2.44,18.66-2.73,9.65-10.51,13.92-11.84,14.62"/>
</svg>