<?xml version="1.0" encoding="UTF-8"?>
<svg id="Layer_1" data-name="Layer 1" xmlns="http://www.w3.org/2000/svg" viewBox="0 0 88 88">
  <defs>
    <style>
      .cls-1 {
        stroke-width: 2px;
      }

      .cls-1, .cls-2 {
        stroke: #6f4f47;
      }

      .cls-1, .cls-2, .cls-3 {
        fill: none;
        stroke-miterlimit: 10;
      }

      .cls-2, .cls-3 {
        stroke-width: 3px;
      }

      .cls-3 {
        stroke: #e0b67f;
      }
    </style>
  </defs>
  <path class="cls-2" d="M64.65,36.75c.29-.51,2.62-4.71.69-9.35-1.43-3.44-4.3-4.96-5.1-5.34-.07-.43-1.21-6.52-7.06-9.03-6.19-2.66-11.67,1.26-11.89,1.43-.68-.41-4.5-2.63-9.21-1.34-5.86,1.6-7.88,7.2-8.05,7.69-.88.11-4.2.62-6.62,3.49-2.39,2.83-2.98,6.87-1.61,10.55-.48.41-4.61,4.04-4.29,9.92.3,5.58,4.36,8.7,4.92,9.12-1.3,3.76-.52,7.86,2.06,10.64,3,3.23,7.1,3.23,7.78,3.22,1.27,3.07,4.09,5.18,7.3,5.45,4.19.36,6.93-2.61,7.23-2.95l.49-.64v-13.41c-.09-.44-.3-1.22-.87-2.02-.57-.79-1.23-1.25-1.62-1.47.37-.2.97-.57,1.5-1.22.65-.79.89-1.59.99-2.03v-13.41c-.1-.56-.38-1.64-1.24-2.64-.43-.51-.89-.85-1.25-1.08.41-.27,1.05-.76,1.61-1.56.52-.75.76-1.47.88-1.93v-14.39"/>
  <path class="cls-1" d="M29.87,35.09c0-.2.06-1.95-1.32-3.08-1.18-.96-2.91-1.05-4.32-.22"/>
  <path class="cls-1" d="M28.55,32.01s1.39-2.23,3.59-2.49"/>
  <path class="cls-1" d="M25.25,46.94c0-.2.06-1.95-1.32-3.08-1.18-.96-2.91-1.05-4.32-.22"/>
  <path class="cls-1" d="M23.93,43.87s1.39-2.23,3.59-2.49"/>
  <path class="cls-1" d="M24.49,52.32c.31,0,1.82.08,3.03,1.3,1.34,1.36,1.26,3.08,1.24,3.35"/>
  <circle class="cls-3" cx="63.4" cy="51.43" r="9.1"/>
  <path class="cls-3" d="M50.35,74.41c-.16-.95-.72-5.05,1.9-8.83,3.82-5.5,10.79-5.08,11.14-5.06.55-.03,6.75-.3,10.61,4.7,3.02,3.9,2.51,8.31,2.39,9.18"/>
</svg>