<?xml version="1.0" encoding="UTF-8"?>
<svg id="Layer_1" data-name="Layer 1" xmlns="http://www.w3.org/2000/svg" viewBox="0 0 88 88">
  <defs>
    <style>
      .cls-1 {
        stroke: #e0b67f;
      }

      .cls-1, .cls-2, .cls-3 {
        stroke-width: 3px;
      }

      .cls-1, .cls-2, .cls-3, .cls-4 {
        fill: none;
        stroke-miterlimit: 10;
      }

      .cls-2, .cls-4 {
        stroke: #6f4f47;
      }

      .cls-3 {
        stroke: #050704;
      }

      .cls-4 {
        stroke-width: 2px;
      }
    </style>
  </defs>
  <path class="cls-3" d="M62.72,38.17c.29-.5,2.58-4.64.68-9.21-1.41-3.39-4.24-4.88-5.02-5.26-.07-.42-1.2-6.42-6.96-8.9-6.1-2.62-11.49,1.24-11.72,1.41-.67-.41-4.43-2.59-9.07-1.32-5.77,1.58-7.76,7.09-7.93,7.58-.87.11-4.14.61-6.52,3.44-2.35,2.79-2.93,6.77-1.59,10.39-.47.4-4.54,3.98-4.23,9.78.29,5.5,4.29,8.58,4.85,8.99-1.28,3.7-.52,7.75,2.03,10.48,2.96,3.18,6.99,3.18,7.66,3.17,1.25,3.02,4.03,5.1,7.19,5.37,4.13.35,6.83-2.57,7.12-2.91l.48-.63v-13.21c-.09-.43-.29-1.2-.86-1.99-.56-.78-1.21-1.23-1.59-1.45.37-.19.95-.56,1.48-1.21.64-.78.88-1.57.97-2v-13.21c-.1-.55-.37-1.61-1.22-2.6-.43-.5-.87-.84-1.23-1.06.4-.26,1.04-.74,1.59-1.53.52-.74.75-1.44.87-1.9v-14.18"/>
  <path class="cls-2" d="M62.72,38.17c.29-.5,2.58-4.64.68-9.21-1.41-3.39-4.24-4.88-5.02-5.26-.07-.42-1.2-6.42-6.96-8.9-6.1-2.62-11.49,1.24-11.72,1.41-.67-.41-4.43-2.59-9.07-1.32-5.77,1.58-7.76,7.09-7.93,7.58-.87.11-4.14.61-6.52,3.44-2.35,2.79-2.93,6.77-1.59,10.39-.47.4-4.54,3.98-4.23,9.78.29,5.5,4.29,8.58,4.85,8.99-1.28,3.7-.52,7.75,2.03,10.48,2.96,3.18,6.99,3.18,7.66,3.17,1.25,3.02,4.03,5.1,7.19,5.37,4.13.35,6.83-2.57,7.12-2.91l.48-.63v-13.21c-.09-.43-.29-1.2-.86-1.99-.56-.78-1.21-1.23-1.59-1.45.37-.19.95-.56,1.48-1.21.64-.78.88-1.57.97-2v-13.21c-.1-.55-.37-1.61-1.22-2.6-.43-.5-.87-.84-1.23-1.06.4-.26,1.04-.74,1.59-1.53.52-.74.75-1.44.87-1.9v-14.18"/>
  <path class="cls-1" d="M73.56,57.71c.12-1.14.42-5.48-2.49-9.41-4.3-5.8-11.65-5.38-12.17-5.34-.97.07-6.14.55-9.94,5.02-3.43,4.04-3.43,8.62-3.4,9.73.07,1.48.49,6.44,4.39,10.09,4.85,4.55,13.11,5.23,18.18,1.15,2.78-2.24,3.82-5.28,4.22-6.84"/>
  <path class="cls-1" d="M69,54.95c1.64.78,3.27,1.57,4.91,2.35,1.25-1.7,2.5-3.39,3.74-5.09"/>
  <path class="cls-4" d="M25.79,46.04c0-.19-.1-1.92-1.55-2.91-1.23-.84-2.94-.8-4.26.14"/>
  <path class="cls-4" d="M24.25,43.13s1.18-2.31,3.32-2.74"/>
  <path class="cls-4" d="M24.43,50.76c.31.03,1.79.2,2.88,1.5,1.22,1.43,1.02,3.12.98,3.38"/>
</svg>