<?xml version="1.0" encoding="UTF-8"?>
<svg id="Layer_1" data-name="Layer 1" xmlns="http://www.w3.org/2000/svg" viewBox="0 0 88 88">
  <defs>
    <style>
      .cls-1 {
        stroke-width: 2px;
      }

      .cls-1, .cls-2 {
        stroke: #6f4f47;
      }

      .cls-1, .cls-2, .cls-3, .cls-4 {
        fill: none;
        stroke-miterlimit: 10;
      }

      .cls-2, .cls-3, .cls-4 {
        stroke-width: 3px;
      }

      .cls-3 {
        stroke: #e0b67f;
      }

      .cls-4 {
        stroke: #050704;
      }
    </style>
  </defs>
  <path class="cls-2" d="M68.47,37.56c.31-.54,2.8-5.04.74-10-1.53-3.68-4.61-5.3-5.45-5.72-.08-.46-1.3-6.97-7.56-9.66-6.63-2.85-12.48,1.35-12.72,1.53-.73-.44-4.81-2.81-9.85-1.43-6.26,1.71-8.43,7.7-8.61,8.23-.94.12-4.5.67-7.08,3.73-2.55,3.03-3.19,7.35-1.72,11.29-.51.44-4.93,4.32-4.59,10.62.32,5.97,4.66,9.31,5.26,9.76-1.39,4.02-.56,8.41,2.2,11.38,3.21,3.46,7.59,3.46,8.32,3.44,1.36,3.28,4.38,5.54,7.81,5.84,4.49.38,7.41-2.79,7.73-3.16l.53-.68v-14.35c-.09-.47-.32-1.3-.93-2.16-.61-.85-1.32-1.33-1.73-1.57.4-.21,1.03-.61,1.61-1.31.69-.84.95-1.7,1.06-2.17v-14.35c-.11-.6-.41-1.75-1.32-2.83-.46-.54-.95-.91-1.34-1.15.44-.28,1.13-.81,1.72-1.67.56-.8.82-1.57.94-2.06v-15.4"/>
  <g>
    <path class="cls-1" d="M32.13,33.6c-.05-.18-.54-1.73-2.1-2.3-1.33-.48-2.88-.03-3.86,1.13"/>
    <path class="cls-1" d="M30.03,31.31s.54-2.39,2.39-3.29"/>
    <path class="cls-1" d="M28.95,43.9c-.21-.08-2.09-.75-3.77.36-1.44.94-2.14,2.77-1.73,4.58"/>
    <path class="cls-1" d="M26.34,57.35c.35-.05,2.05-.24,3.62.92,1.74,1.28,1.96,3.22,1.99,3.53"/>
  </g>
  <line class="cls-3" x1="47.68" y1="47.12" x2="67.24" y2="47.12"/>
  <path class="cls-3" d="M47.68,55.78h12.96c1.95,1.84,3.89,3.68,5.84,5.52"/>
  <path class="cls-4" d="M49.31,65.45c.8.87,1.61,1.74,2.41,2.61"/>
  <circle class="cls-3" cx="71.9" cy="47.12" r="4.5"/>
  <circle class="cls-3" cx="70.39" cy="64.98" r="4.5"/>
  <circle class="cls-3" cx="55.73" cy="72.3" r="4.5"/>
</svg>