<?xml version="1.0" encoding="UTF-8"?>
<svg id="Layer_1" xmlns="http://www.w3.org/2000/svg" xmlns:xlink="http://www.w3.org/1999/xlink" version="1.1" viewBox="0 0 1098.9 476.6">
  <!-- Generator: Adobe Illustrator 29.7.1, SVG Export Plug-In . SVG Version: 2.1.1 Build 8)  -->
  <defs>
    <style>
      .st0, .st1, .st2 {
        fill: none;
        stroke: #fff;
        stroke-miterlimit: 10;
      }

      .st0, .st2 {
        stroke-width: 81px;
      }

      .st1 {
        stroke-width: 75px;
      }

      .st3 {
        fill: #fff;
      }

      .st2 {
        stroke-linecap: round;
      }
    </style>
  </defs>
  <g id="qWvQj4.tif">
    <image id="Layer_11" data-name="Layer_1" width="776" height="303" transform="translate(1395.4 445.5)" xlink:href="Epilu text-1.png"/>
  </g>
  <polyline class="st1" points="232.1 54.6 43.9 54.6 43.9 330.8 234.1 330.8"/>
  <line class="st1" x1="233.1" y1="194.3" x2="61.1" y2="194.3"/>
  <line class="st1" x1="589.4" y1="99.9" x2="589.4" y2="372.8"/>
  <line class="st1" x1="704" y1="18.6" x2="704" y2="372.8"/>
  <line class="st1" x1="319.6" y1="89.5" x2="319.6" y2="469.5"/>
  <line class="st2" x1="587.9" y1="44.6" x2="588.7" y2="44"/>
  <line class="st2" x1="816.6" y1="139" x2="817.4" y2="138.4"/>
  <line class="st2" x1="1047.8" y1="138.6" x2="1047.4" y2="138.8"/>
  <path class="st0" d="M815.9,199.9v22.8c0,59.6,51.8,107.9,115.8,107.9h0c63.9,0,115.8-48.3,115.8-107.9v-26"/>
  <path class="st3" d="M340.9,176.9c2.1-24.2,13.1-47.5,32-64.1,16.3-14.4,39.5-21.2,61.2-19.1,41.8,3.7,70,29.2,84.7,67.4,13.5,36.3,14.2,74.5,8.4,112.1-2.4,14-5.4,27.4-11.8,40.4-10.5,21.5-29.1,39.2-51.4,48.2-21,8.5-44.8,7.6-65.5.4-25.8-8.6-48.2-27.5-55.4-54.3-2.5-8.9-3.1-17.5-3-26.5,0-2.6.3-5.9,0-8.4,4.1,4,6.9,9.1,10.4,13.4,8.3,11.4,20.3,21.9,32.8,25.6,13.6,4.3,33.3,4.7,46.4-1,8.3-3.7,13.9-10.1,18.1-17.8,3.6-7,4.6-15.1,5.5-23.1,1.3-11.5,2-23.3,2.2-34.9.2-23.3-.8-54.4-13.3-74.3-1.8-2.7-3.9-5.1-6.4-7.2-6.9-4.8-14.4-8.7-22-10.4-27.1-6-53.9,15.6-73,33.6h0Z"/>
</svg>