<svg width="779" height="347" viewBox="0 0 779 347" fill="none" xmlns="http://www.w3.org/2000/svg">
<path d="M420.718 297.094C618.2 269.691 770.895 194.172 761.771 128.417C752.646 62.6626 585.158 31.5724 387.676 58.9754C190.193 86.3784 37.4986 161.898 46.6228 227.652C55.747 293.407 223.235 324.497 420.718 297.094Z" stroke="white" stroke-width="20" stroke-miterlimit="10"/>
<path d="M6.29999 246.1C9.77938 246.1 12.6 243.279 12.6 239.8C12.6 236.321 9.77938 233.5 6.29999 233.5C2.82059 233.5 0 236.321 0 239.8C0 243.279 2.82059 246.1 6.29999 246.1Z" fill="white"/>
<path d="M38.5 282.1C40.7643 282.1 42.5999 280.264 42.5999 278C42.5999 275.736 40.7643 273.9 38.5 273.9C36.2356 273.9 34.4 275.736 34.4 278C34.4 280.264 36.2356 282.1 38.5 282.1Z" fill="white"/>
<path d="M246.1 36.7C248.364 36.7 250.2 34.8644 250.2 32.6C250.2 30.3356 248.364 28.5 246.1 28.5C243.836 28.5 242 30.3356 242 32.6C242 34.8644 243.836 36.7 246.1 36.7Z" fill="white"/>
<path d="M563.1 13.2C566.745 13.2 569.7 10.2451 569.7 6.60001C569.7 2.95493 566.745 0 563.1 0C559.455 0 556.5 2.95493 556.5 6.60001C556.5 10.2451 559.455 13.2 563.1 13.2Z" fill="white"/>
<path d="M771.8 184.3C774.064 184.3 775.9 182.464 775.9 180.2C775.9 177.936 774.064 176.1 771.8 176.1C769.536 176.1 767.7 177.936 767.7 180.2C767.7 182.464 769.536 184.3 771.8 184.3Z" fill="white"/>
</svg>
